<?xml version="1.0" encoding="iso-8859-1"?>
<!-- Generator: Adobe Illustrator 19.0.0, SVG Export Plug-In . SVG Version: 6.00 Build 0)  -->
<svg version="1.1" id="Layer_1" xmlns="http://www.w3.org/2000/svg" xmlns:xlink="http://www.w3.org/1999/xlink" x="0px" y="0px"
	 viewBox="0 0 512 512" style="enable-background:new 0 0 512 512;" xml:space="preserve">
<path style="fill:#6DC82A;" d="M256,512c-3.403,0-6.804-1.038-9.707-3.109L12.554,341.935c-5.902-4.217-8.408-11.772-6.191-18.685
	c2.213-6.908,8.642-11.598,15.898-11.598h50.087V16.696C72.348,7.473,79.821,0,89.043,0h333.913c9.223,0,16.696,7.473,16.696,16.696
	v294.957h50.087c7.256,0,13.685,4.69,15.896,11.598c2.217,6.913-0.288,14.467-6.191,18.685L265.706,508.891
	C262.804,510.961,259.403,512,256,512z"/>
<path style="fill:#61B325;" d="M489.739,311.652h-50.087V16.696C439.652,7.473,432.179,0,422.956,0H256v512l0,0
	c3.403,0,6.804-1.038,9.707-3.109l233.739-166.957c5.902-4.217,8.408-11.772,6.191-18.685
	C503.424,316.342,496.995,311.652,489.739,311.652z"/>
<path style="fill:#FFFFFF;" d="M189.217,155.826c-27.619,0-50.087-22.468-50.087-50.087s22.468-50.087,50.087-50.087
	s50.087,22.468,50.087,50.087S216.836,155.826,189.217,155.826z M189.217,89.043c-9.206,0-16.696,7.49-16.696,16.696
	s7.49,16.696,16.696,16.696s16.696-7.49,16.696-16.696S198.423,89.043,189.217,89.043z"/>
<path style="fill:#D1E7F8;" d="M322.783,289.391c-27.619,0-50.087-22.468-50.087-50.087s22.468-50.087,50.087-50.087
	s50.087,22.468,50.087,50.087S350.402,289.391,322.783,289.391z M322.783,222.609c-9.206,0-16.696,7.49-16.696,16.696
	S313.577,256,322.783,256c9.206,0,16.696-7.49,16.696-16.696S331.989,222.609,322.783,222.609z"/>
<path style="fill:#FFFFFF;" d="M185.163,260.059c-4.272,0-8.544-1.631-11.804-4.892c-6.521-6.516-6.521-17.092,0-23.609
	L315.027,89.891c6.521-6.521,17.087-6.521,23.609,0c6.521,6.516,6.521,17.092,0,23.609L196.967,255.167
	C193.706,258.43,189.434,260.059,185.163,260.059z"/>
<path style="fill:#D1E7F8;" d="M315.028,89.892L256,148.921v47.218l82.637-82.639c6.521-6.516,6.521-17.092,0-23.609
	C332.115,83.369,321.55,83.369,315.028,89.892z"/>
<g>
</g>
<g>
</g>
<g>
</g>
<g>
</g>
<g>
</g>
<g>
</g>
<g>
</g>
<g>
</g>
<g>
</g>
<g>
</g>
<g>
</g>
<g>
</g>
<g>
</g>
<g>
</g>
<g>
</g>
</svg>
